<?xml version="1.0" encoding="UTF-8" standalone="no"?>
<!-- Created with Inkscape (http://www.inkscape.org/) -->

<svg
   xmlns:dc="http://purl.org/dc/elements/1.1/"
   xmlns:cc="http://creativecommons.org/ns#"
   xmlns:rdf="http://www.w3.org/1999/02/22-rdf-syntax-ns#"
   xmlns:svg="http://www.w3.org/2000/svg"
   xmlns="http://www.w3.org/2000/svg"
   xmlns:xlink="http://www.w3.org/1999/xlink"
   xmlns:sodipodi="http://sodipodi.sourceforge.net/DTD/sodipodi-0.dtd"
   xmlns:inkscape="http://www.inkscape.org/namespaces/inkscape"
   width="210mm"
   height="297mm"
   viewBox="0 0 744.09448819 1052.3622047"
   id="svg2"
   version="1.1"
   inkscape:version="0.91 r13725"
   sodipodi:docname="Articolo.svg.2016_05_11_15_29_43.0.svg">
  <defs
     id="defs4">
    <linearGradient
       inkscape:collect="always"
       id="linearGradient5992">
      <stop
         style="stop-color:#ffffff;stop-opacity:1;"
         offset="0"
         id="stop5994" />
      <stop
         style="stop-color:#ffffff;stop-opacity:0;"
         offset="1"
         id="stop5996" />
    </linearGradient>
    <linearGradient
       id="linearGradient3586">
      <stop
         style="stop-color:#000000;stop-opacity:1.0000000;"
         offset="0.0000000"
         id="stop3588" />
      <stop
         style="stop-color:#ffffff;stop-opacity:0;"
         offset="1"
         id="stop3590" />
    </linearGradient>
    <linearGradient
       y2="187.57059"
       y1="225.40080"
       xlink:href="#linearGradient5992"
       x2="458.91232"
       x1="383.95898"
       inkscape:collect="always"
       id="linearGradient5969"
       gradientUnits="userSpaceOnUse" />
    <radialGradient
       xlink:href="#linearGradient5992"
       r="33.156250"
       inkscape:collect="always"
       id="radialGradient6000"
       gradientUnits="userSpaceOnUse"
       gradientTransform="matrix(1.000000,0.000000,0.000000,1.693685,0.000000,-197.9515)"
       fy="285.36218"
       fx="495.50000"
       cy="285.36218"
       cx="495.50000" />
  </defs>
  <sodipodi:namedview
     id="base"
     pagecolor="#ffffff"
     bordercolor="#666666"
     borderopacity="1.0"
     inkscape:pageopacity="0.0"
     inkscape:pageshadow="2"
     inkscape:zoom="0.70710678"
     inkscape:cx="448.11563"
     inkscape:cy="359.38406"
     inkscape:document-units="px"
     inkscape:current-layer="layer1"
     showgrid="true"
     showguides="true"
     inkscape:window-width="868"
     inkscape:window-height="690"
     inkscape:window-x="373"
     inkscape:window-y="0"
     inkscape:window-maximized="0"
     inkscape:guide-bbox="true"
     inkscape:snap-grids="true">
    <sodipodi:guide
       position="195.71429,185.71429"
       orientation="1,0"
       id="guide3389" />
    <inkscape:grid
       type="xygrid"
       id="grid3391" />
    <sodipodi:guide
       position="180,260.00001"
       orientation="0,1"
       id="guide3393" />
    <sodipodi:guide
       position="270,400.00001"
       orientation="0,1"
       id="guide3395" />
    <sodipodi:guide
       position="220,130"
       orientation="0,1"
       id="guide3397" />
    <sodipodi:guide
       position="50,440.00001"
       orientation="1,0"
       id="guide3399" />
    <sodipodi:guide
       position="240,150"
       orientation="0,1"
       id="guide3401" />
    <sodipodi:guide
       position="70.000001,400.00001"
       orientation="1,0"
       id="guide3403" />
    <sodipodi:guide
       position="170,380.00001"
       orientation="0,1"
       id="guide3405" />
    <sodipodi:guide
       position="340,280.00001"
       orientation="1,0"
       id="guide3407" />
    <sodipodi:guide
       position="320,260.00001"
       orientation="1,0"
       id="guide3409" />
    <sodipodi:guide
       position="220,310.00001"
       orientation="0,1"
       id="guide3531" />
    <sodipodi:guide
       position="220,290.00001"
       orientation="0,1"
       id="guide3535" />
    <sodipodi:guide
       position="175,420.00001"
       orientation="1,0"
       id="guide3537" />
    <sodipodi:guide
       position="240,210"
       orientation="0,1"
       id="guide3475" />
  </sodipodi:namedview>
  <metadata
     id="metadata7">
    <rdf:RDF>
      <cc:Work
         rdf:about="">
        <dc:format>image/svg+xml</dc:format>
        <dc:type
           rdf:resource="http://purl.org/dc/dcmitype/StillImage" />
        <dc:title />
      </cc:Work>
    </rdf:RDF>
  </metadata>
  <g
     inkscape:label="Layer 1"
     inkscape:groupmode="layer"
     id="layer1">
    <g
       id="g3587"
       transform="matrix(-0.49019399,0,0,0.49019385,350.00804,642.3461)"
       inkscape:export-xdpi="122.6"
       inkscape:export-ydpi="122.6"
       style="fill:#008080">
      <g
         id="g3543"
         style="fill:#008080">
	<g
   id="g3545"
   style="fill:#008080">
		<path
   id="path3547"
   d="m 323.128,56.236 5.646,-9.57 40.17,-40.169 C 271.247,-13.921 165.482,13.786 89.65,89.646 -16.421,195.717 -28.355,360.261 53.875,479.49 l -42.895,42.896 137.7,19.667 -19.667,-137.7 -34.968,34.967 C 33.067,342.596 44.723,213.242 128.985,128.98 182.229,75.737 253.471,51.479 323.128,56.236 Z"
   inkscape:connector-curvature="0"
   style="fill:#008080" />

		<path
   id="path3549"
   d="m 581.392,69.979 -137.7,-19.667 19.668,137.7 38.25,-38.25 c 78.726,98.31 72.521,242.186 -18.583,333.317 -61.116,61.117 -145.989,84.039 -224.882,68.739 l -45.65,45.649 c 105.654,33.799 226.05,8.791 309.895,-75.054 112.858,-112.858 119.146,-291.979 18.805,-412.209 l 40.197,-40.225 z"
   inkscape:connector-curvature="0"
   style="fill:#008080" />

	</g>

</g>
      <g
         id="g3551"
         style="fill:#008080">
</g>
      <g
         id="g3553"
         style="fill:#008080">
</g>
      <g
         id="g3555"
         style="fill:#008080">
</g>
      <g
         id="g3557"
         style="fill:#008080">
</g>
      <g
         id="g3559"
         style="fill:#008080">
</g>
      <g
         id="g3561"
         style="fill:#008080">
</g>
      <g
         id="g3563"
         style="fill:#008080">
</g>
      <g
         id="g3565"
         style="fill:#008080">
</g>
      <g
         id="g3567"
         style="fill:#008080">
</g>
      <g
         id="g3569"
         style="fill:#008080">
</g>
      <g
         id="g3571"
         style="fill:#008080">
</g>
      <g
         id="g3573"
         style="fill:#008080">
</g>
      <g
         id="g3575"
         style="fill:#008080">
</g>
      <g
         id="g3577"
         style="fill:#008080">
</g>
      <g
         id="g3579"
         style="fill:#008080">
</g>
    </g>
    <g
       inkscape:label="Layer 1"
       id="layer1-5"
       transform="matrix(0.1656107,0,0,0.16561037,78.123007,608.09584)"
       inkscape:tile-cx="140"
       inkscape:tile-cy="691.00719"
       inkscape:tile-w="79.999999"
       inkscape:tile-h="122.73039"
       inkscape:tile-x0="100"
       inkscape:tile-y0="629.63181"
       inkscape:export-xdpi="122.6"
       inkscape:export-ydpi="122.6">
      <g
         transform="matrix(2.674162,0,0,2.674162,-826.248,-323.8239)"
         id="g6052">
        <path
           style="fill:#c7c7c7;fill-opacity:1;fill-rule:evenodd;stroke:#000000;stroke-width:6.11299896;stroke-linecap:butt;stroke-linejoin:miter;stroke-miterlimit:4;stroke-dasharray:none;stroke-opacity:1"
           sodipodi:nodetypes="czcczzz"
           id="path1306"
           d="m 362.77592,187.283 c -2.27249,3.70377 -1.56999,180.40463 1.36419,187.36873 2.32257,5.51247 76.8837,67.47815 80.79688,69.13521 50.41318,-0.34294 84.40477,-18.70114 90.0541,-28.39959 2.14933,-12.19845 0.32512,-200.19026 -1.73557,-204.13376 -1.77693,-3.40047 -97.20659,-37.61499 -100.53937,-38.39305 -2.99852,-0.70002 -67.41426,10.30556 -69.94023,14.42246 z"
           inkscape:connector-curvature="0" />
        <path
           style="fill:#ffffff;fill-opacity:0.54385968;fill-rule:evenodd;stroke:none;stroke-width:0.25pt;stroke-linecap:butt;stroke-linejoin:miter;stroke-opacity:1"
           sodipodi:nodetypes="ccccccc"
           id="path2066"
           d="m 366.42857,190.93361 c 24.76191,10.47619 52.17744,27.37378 79.79649,40.70711 26.16894,-6.21919 63.97714,-14.531 83.02475,-17.86433 -24.52381,7.61904 -56.72959,14.73809 -81.2534,22.35714 -1.42857,57.38095 -0.73941,144.32508 -2.16798,201.70603 C 445.11414,379.98242 443.14285,291.6479 442.42856,233.79075 415.99999,219.50504 390,206.64789 366.42857,190.93361 Z"
           inkscape:connector-curvature="0" />
        <path
           style="fill:#000000;fill-opacity:0.16228069;fill-rule:evenodd;stroke:none;stroke-width:0.25pt;stroke-linecap:butt;stroke-linejoin:miter;stroke-opacity:1"
           sodipodi:nodetypes="ccc"
           id="path4356"
           d="m 519.99794,379.97737 c -9.0596,13.02145 -37.57945,19.45624 -51.12534,14.19127 2.34575,-0.62624 48.08883,-13.19981 51.12534,-14.19127 z"
           inkscape:connector-curvature="0" />
        <g
           transform="translate(2.035534,15.20712)"
           id="g4374">
          <path
             style="fill:#ffffff;fill-opacity:0.39473685;fill-rule:evenodd;stroke:none;stroke-width:1.01199996;stroke-linecap:butt;stroke-linejoin:miter;stroke-miterlimit:4;stroke-dasharray:none;stroke-opacity:1"
             sodipodi:nodetypes="cccccc"
             id="path4362"
             d="m 471.29127,340.59039 42.26794,-16.28523 c 4.34099,1.54289 3.48667,7.97302 3.48667,7.97302 l -6.58433,2.3027 c 0,0 -9.19391,14.43136 -25.53059,8.78707 0,0 -12.15226,2.1581 -13.63969,-2.77756 z"
             inkscape:connector-curvature="0" />
          <path
             style="fill:#606060;fill-opacity:1;fill-rule:evenodd;stroke:none;stroke-width:1.11199999;stroke-linecap:butt;stroke-linejoin:miter;stroke-miterlimit:4;stroke-dasharray:none;stroke-opacity:1"
             sodipodi:nodetypes="ccccccc"
             id="path2826"
             d="m 471.66824,335.10501 c 14.03309,-3.65019 28.06619,-7.30037 42.09928,-10.95056 0.53842,1.98419 0.57685,4.84337 -0.25973,6.32756 -2.14213,1.02451 -6.40558,1.87224 -8.54771,2.89675 -6.15651,5.89478 -11.50091,6.42487 -21.30089,5.57367 -3.78414,0.7936 -7.56829,1.41041 -11.35243,2.20401 -1.15391,-2.29747 -1.48461,-3.25396 -0.63852,-6.05143 z"
             inkscape:connector-curvature="0" />
        </g>
        <path
           style="fill:#ffffff;fill-opacity:0.40350874;fill-rule:evenodd;stroke:none;stroke-width:0.25pt;stroke-linecap:butt;stroke-linejoin:miter;stroke-opacity:1"
           sodipodi:nodetypes="ccccc"
           id="path4423"
           d="m 364.8671,189.69191 81.85281,45.92641 -0.32842,205.38939 -80.11017,-67.46803 -1.41422,-183.84777 z"
           inkscape:connector-curvature="0" />
        <path
           style="fill:#000000;fill-opacity:0.16228069;fill-rule:evenodd;stroke:none;stroke-width:0.25pt;stroke-linecap:butt;stroke-linejoin:miter;stroke-opacity:1"
           sodipodi:nodetypes="ccc"
           id="path5957"
           d="m 515.24794,392.97737 c -9.43288,12.44299 -28.30681,14.5835 -38.87534,10.79094 1.7837,-0.47619 36.56641,-10.03704 38.87534,-10.79094 z"
           inkscape:connector-curvature="0" />
        <path
           style="fill:#000000;fill-opacity:0.16228069;fill-rule:evenodd;stroke:none;stroke-width:0.25pt;stroke-linecap:butt;stroke-linejoin:miter;stroke-opacity:1"
           sodipodi:nodetypes="ccc"
           id="path5959"
           d="m 508.24794,405.72737 c -5.45636,7.36542 -15.99874,9.64404 -24.37534,6.76606 1.1184,-0.29858 22.92761,-6.29335 24.37534,-6.76606 z"
           inkscape:connector-curvature="0" />
        <path
           style="fill:#fcfcfc;fill-opacity:0.44298245;fill-rule:evenodd;stroke:none;stroke-width:0.31200001;stroke-linecap:butt;stroke-linejoin:miter;stroke-miterlimit:4;stroke-dasharray:none;stroke-opacity:1"
           sodipodi:nodetypes="ccccccc"
           id="path5973"
           d="m 522.875,227.86218 4.16789,0.56802 0.75,98.13909 -64.32427,17.97967 -1.58474,-5.20823 61.80546,-16.47855 -0.81434,-95 z"
           inkscape:connector-curvature="0" />
        <path
           style="color:#000000;font-family:'Bitstream Vera Sans';display:inline;overflow:visible;visibility:visible;opacity:1;fill:#000000;fill-opacity:0.22745098;fill-rule:evenodd;stroke:none;stroke-width:2.61199999;stroke-linecap:butt;stroke-linejoin:miter;stroke-miterlimit:4;stroke-dasharray:none;stroke-dashoffset:0;stroke-opacity:0.22807013;marker:none;marker-start:none;marker-mid:none;marker-end:none"
           sodipodi:nodetypes="cccc"
           id="path6026"
           d="m 462.21967,264.23013 0.0947,2.76073 60.47856,-17.44454 -60.57323,14.68381 z"
           inkscape:connector-curvature="0" />
        <path
           style="color:#000000;font-family:'Bitstream Vera Sans';display:inline;overflow:visible;visibility:visible;opacity:1;fill:#000000;fill-opacity:0.22745098;fill-rule:evenodd;stroke:none;stroke-width:2.61199999;stroke-linecap:butt;stroke-linejoin:miter;stroke-miterlimit:4;stroke-dasharray:none;stroke-dashoffset:0;stroke-opacity:0.22807013;marker:none;marker-start:none;marker-mid:none;marker-end:none"
           sodipodi:nodetypes="cccc"
           id="path6036"
           d="m 461.33579,284.2059 0.0947,2.76073 60.47856,-17.44454 -60.57323,14.68381 z"
           inkscape:connector-curvature="0" />
        <path
           style="color:#000000;font-family:'Bitstream Vera Sans';display:inline;overflow:visible;visibility:visible;opacity:1;fill:#000000;fill-opacity:0.22745098;fill-rule:evenodd;stroke:none;stroke-width:2.61199999;stroke-linecap:butt;stroke-linejoin:miter;stroke-miterlimit:4;stroke-dasharray:none;stroke-dashoffset:0;stroke-opacity:0.22807013;marker:none;marker-start:none;marker-mid:none;marker-end:none"
           sodipodi:nodetypes="cccc"
           id="path6038"
           d="m 462.21967,302.64613 0.0947,2.76073 60.47856,-17.44454 -60.57323,14.68381 z"
           inkscape:connector-curvature="0" />
        <path
           style="color:#000000;font-family:'Bitstream Vera Sans';display:inline;overflow:visible;visibility:visible;opacity:1;fill:#000000;fill-opacity:0.22745098;fill-rule:evenodd;stroke:none;stroke-width:2.61199999;stroke-linecap:butt;stroke-linejoin:miter;stroke-miterlimit:4;stroke-dasharray:none;stroke-dashoffset:0;stroke-opacity:0.22807013;marker:none;marker-start:none;marker-mid:none;marker-end:none"
           sodipodi:nodetypes="cccc"
           id="path6040"
           d="m 462.21967,320.79868 0.0947,2.76073 60.47856,-17.44454 -60.57323,14.68381 z"
           inkscape:connector-curvature="0" />
        <path
           style="color:#000000;font-family:'Bitstream Vera Sans';display:inline;overflow:visible;visibility:visible;opacity:1;fill:none;fill-opacity:0.75;fill-rule:evenodd;stroke:#9e9e9e;stroke-width:2.61199999;stroke-linecap:butt;stroke-linejoin:miter;stroke-miterlimit:4;stroke-dasharray:none;stroke-dashoffset:0;stroke-opacity:1;marker:none;marker-start:none;marker-mid:none;marker-end:none"
           sodipodi:nodetypes="ccc"
           id="path5988"
           d="m 522.55191,229.64344 -60.51829,15.11701 0.50187,99.59768"
           inkscape:connector-curvature="0" />
      </g>
    </g>
    <flowRoot
       xml:space="preserve"
       id="flowRoot3461"
       style="fill:black;stroke:none;stroke-opacity:1;stroke-width:1px;stroke-linejoin:miter;stroke-linecap:butt;fill-opacity:1;font-family:sans-serif;font-style:normal;font-weight:normal;font-size:10px;line-height:125%;letter-spacing:0px;word-spacing:0px;"
       inkscape:export-xdpi="122.6"
       inkscape:export-ydpi="122.6"><flowRegion
         id="flowRegion3463"><rect
           id="rect3465"
           width="50"
           height="10"
           x="290"
           y="852.36218"
           style="font-size:10px;" /></flowRegion><flowPara
         id="flowPara3467" /></flowRoot>    <flowRoot
       xml:space="preserve"
       id="flowRoot3477"
       style="fill:#666666;stroke:none;stroke-opacity:1;stroke-width:1px;stroke-linejoin:miter;stroke-linecap:butt;fill-opacity:1;font-family:sans-serif;font-style:normal;font-weight:normal;font-size:7.5px;line-height:125%;letter-spacing:0px;word-spacing:0px;"
       inkscape:export-xdpi="122.6"
       inkscape:export-ydpi="122.6"><flowRegion
         id="flowRegion3479"><rect
           id="rect3481"
           width="40"
           height="80"
           x="310"
           y="752.36218"
           style="font-size:7.5px;fill:#666666;" /></flowRegion><flowPara
         id="flowPara3483" /></flowRoot>    <flowRoot
       xml:space="preserve"
       id="flowRoot3485"
       style="fill:black;stroke:none;stroke-opacity:1;stroke-width:1px;stroke-linejoin:miter;stroke-linecap:butt;fill-opacity:1;font-family:sans-serif;font-style:normal;font-weight:normal;font-size:7.5px;line-height:125%;letter-spacing:0px;word-spacing:0px;"
       inkscape:export-xdpi="122.6"
       inkscape:export-ydpi="122.6"><flowRegion
         id="flowRegion3487"><rect
           id="rect3489"
           width="40"
           height="80"
           x="310"
           y="752.36218"
           style="font-size:7.5px;" /></flowRegion><flowPara
         id="flowPara3491" /></flowRoot>    <g
       id="g3477"
       transform="matrix(1.0020067,0,0,0.77176853,-0.39132518,180.70117)"
       inkscape:export-xdpi="122.6"
       inkscape:export-ydpi="122.6">
      <rect
         y="728.10919"
         x="300"
         height="128.91245"
         width="60"
         id="rect3459"
         style="fill:#ececec" />
      <text
         transform="scale(1.000002,0.99999801)"
         sodipodi:linespacing="125%"
         id="text3503-5"
         y="795.79254"
         x="309.33725"
         style="font-style:normal;font-weight:normal;font-size:37.73948288px;line-height:125%;font-family:sans-serif;letter-spacing:0px;word-spacing:0px;fill:#000000;fill-opacity:1;stroke:none;stroke-width:1px;stroke-linecap:butt;stroke-linejoin:miter;stroke-opacity:1"
         xml:space="preserve"><tspan
           y="795.79254"
           x="309.33725"
           id="tspan3505-1"
           sodipodi:role="line">.o</tspan></text>
      <flowRoot
         transform="matrix(1.5538286,0,0,1.2838826,-179.1493,-222.20229)"
         style="font-style:normal;font-weight:normal;font-size:7.5px;line-height:125%;font-family:sans-serif;letter-spacing:0px;word-spacing:0px;fill:#000000;fill-opacity:1;stroke:none;stroke-width:1px;stroke-linecap:butt;stroke-linejoin:miter;stroke-opacity:1"
         id="flowRoot3493"
         xml:space="preserve"><flowRegion
           id="flowRegion3495"><rect
             y="752.36218"
             x="310"
             height="80"
             width="40"
             id="rect3497" /></flowRegion><flowPara
           style="font-style:normal;font-variant:normal;font-weight:normal;font-stretch:normal;font-family:'Courier New';-inkscape-font-specification:'Courier New';fill:#000000"
           id="flowPara3499">01010001</flowPara><flowPara
           style="font-style:normal;font-variant:normal;font-weight:normal;font-stretch:normal;font-family:'Courier New';-inkscape-font-specification:'Courier New';fill:#000000"
           id="flowPara3501">11110001</flowPara><flowPara
           style="font-style:normal;font-variant:normal;font-weight:normal;font-stretch:normal;font-family:'Courier New';-inkscape-font-specification:'Courier New';fill:#000000"
           id="flowPara3503">01001110</flowPara><flowPara
           style="font-style:normal;font-variant:normal;font-weight:normal;font-stretch:normal;font-family:'Courier New';-inkscape-font-specification:'Courier New';fill:#000000"
           id="flowPara3505">11000110</flowPara><flowPara
           style="font-style:normal;font-variant:normal;font-weight:normal;font-stretch:normal;font-family:'Courier New';-inkscape-font-specification:'Courier New';fill:#000000"
           id="flowPara3507">01100011</flowPara><flowPara
           style="font-style:normal;font-variant:normal;font-weight:normal;font-stretch:normal;font-family:'Courier New';-inkscape-font-specification:'Courier New';fill:#000000"
           id="flowPara3509">11001100</flowPara><flowPara
           style="font-style:normal;font-variant:normal;font-weight:normal;font-stretch:normal;font-family:'Courier New';-inkscape-font-specification:'Courier New';fill:#000000"
           id="flowPara3511">01101011</flowPara><flowPara
           style="font-style:normal;font-variant:normal;font-weight:normal;font-stretch:normal;font-family:'Courier New';-inkscape-font-specification:'Courier New';fill:#000000"
           id="flowPara3513">01011011</flowPara></flowRoot>    </g>
    <g
       id="g3443"
       inkscape:export-xdpi="122.6"
       inkscape:export-ydpi="122.6">
      <rect
         y="742.36218"
         x="30"
         height="100"
         width="60"
         id="rect3419"
         style="fill:#ececec" />
      <rect
         y="747.36218"
         x="35"
         height="5"
         width="45"
         id="rect3421"
         style="fill:#cccccc" />
      <rect
         y="757.36218"
         x="35"
         height="5"
         width="25"
         id="rect3423"
         style="fill:#cccccc" />
      <rect
         y="767.36218"
         x="35"
         height="5"
         width="20"
         id="rect3425"
         style="fill:#cccccc" />
      <rect
         y="767.36218"
         x="60"
         height="5"
         width="15"
         id="rect3427"
         style="fill:#cccccc" />
      <rect
         y="777.36218"
         x="35"
         height="5"
         width="25"
         id="rect3429"
         style="fill:#cccccc" />
      <rect
         y="787.36218"
         x="35"
         height="4.9999952"
         width="20"
         id="rect3431"
         style="fill:#cccccc" />
      <text
         sodipodi:linespacing="125%"
         id="text3503"
         y="796.55951"
         x="39.743946"
         style="font-style:normal;font-weight:normal;font-size:40.90546036px;line-height:125%;font-family:sans-serif;letter-spacing:0px;word-spacing:0px;fill:#000000;fill-opacity:1;stroke:none;stroke-width:1px;stroke-linecap:butt;stroke-linejoin:miter;stroke-opacity:1"
         xml:space="preserve"><tspan
           y="796.55951"
           x="39.743946"
           id="tspan3505"
           sodipodi:role="line">.c</tspan></text>
      <rect
         y="797.36218"
         x="35"
         height="5"
         width="40"
         id="rect3433"
         style="fill:#cccccc" />
      <rect
         y="807.36218"
         x="35"
         height="5"
         width="10"
         id="rect3435"
         style="fill:#cccccc" />
      <rect
         y="807.36218"
         x="50"
         height="5"
         width="35"
         id="rect3437"
         style="fill:#cccccc" />
      <rect
         y="817.36218"
         x="35"
         height="5"
         width="20"
         id="rect3439"
         style="fill:#cccccc" />
      <rect
         y="827.36218"
         x="35"
         height="5"
         width="30"
         id="rect3441"
         style="fill:#cccccc" />
    </g>
    <g
       id="g3498"
       inkscape:export-xdpi="122.6"
       inkscape:export-ydpi="122.6">
      <use
         id="use3444"
         transform="translate(112,0)"
         xlink:href="#layer1-5"
         inkscape:tiled-clone-of="#layer1-5"
         y="0"
         x="0" />
      <use
         id="use3442"
         transform="translate(55.999999,0)"
         xlink:href="#layer1-5"
         inkscape:tiled-clone-of="#layer1-5"
         y="0"
         x="0" />
      <use
         id="use3440"
         xlink:href="#layer1-5"
         inkscape:tiled-clone-of="#layer1-5"
         y="0"
         x="0" />
    </g>
    <g
       id="g3482"
       transform="matrix(0.17842515,0,0,0.17842515,144.81063,824.36511)"
       inkscape:export-xdpi="122.6"
       inkscape:export-ydpi="122.6">
      <path
         id="path3448"
         d="m 158.38,1.6562 c -3.6193,0.11232 -7.5172,1.4493 -11.938,4.9375 -10.83,-4.1763 -21.33,-5.6271 -30.72,2.8751 C 101.222,7.588 96.51,11.469 92.94,16 89.757,15.934 69.121,12.728 59.658,26.844 35.877,24.03 28.361,40.832 36.877,56.5 c -4.8569,7.519 -9.8895,14.947 1.4688,29.281 -4.018,7.9835 -1.5274,16.644 7.9375,27.125 -2.4979,11.223 2.4121,19.141 11.219,25.312 -1.6471,15.358 14.084,24.287 18.781,27.469 1.8037,8.9487 5.5629,17.393 23.531,22.062 2.9632,13.336 13.762,15.639 24.219,18.438 -34.562,20.09 -64.201,46.523 -64,111.38 l -5.0625,9.0312 c -39.63,24.1 -75.285,101.56 -19.53,164.52 3.6419,19.708 9.7496,33.864 15.188,49.531 8.1338,63.131 61.218,92.692 75.219,96.188 20.517,15.628 42.368,30.457 71.938,40.844 27.875,28.749 58.074,39.706 88.438,39.688 0.44515,-2.8e-4 0.89853,0.005 1.3438,0 30.364,0.0189 60.562,-10.938 88.438,-39.688 29.569,-10.387 51.421,-25.216 71.938,-40.844 14.001,-3.4959 67.085,-33.057 75.219,-96.188 5.4379,-15.667 11.546,-29.823 15.188,-49.531 55.754,-62.965 20.1,-140.43 -19.531,-164.53 l -5.07,-9.03 c 0.20067,-64.852 -29.438,-91.285 -64,-111.38 10.457,-2.7984 21.256,-5.1014 24.219,-18.438 17.968,-4.6698 21.728,-13.114 23.531,-22.062 4.6978,-3.1813 20.428,-12.111 18.781,-27.469 8.8067,-6.1716 13.717,-14.09 11.219,-25.312 9.4649,-10.481 11.956,-19.141 7.9375,-27.125 11.36,-14.328 6.32,-21.756 1.47,-29.275 8.51,-15.668 1,-32.47 -22.79,-29.656 -9.46,-14.116 -30.09,-10.91 -33.28,-10.844 -3.57,-4.531 -8.28,-8.412 -22.78,-6.5312 -9.39,-8.5022 -19.89,-7.0514 -30.72,-2.875 -12.86,-10.148 -21.37,-2.0133 -31.09,1.0624 -15.57,-5.0877 -19.13,1.881 -26.78,4.7188 -16.98,-3.5881 -22.14,4.224 -30.28,12.469 l -9.4688,-0.1875 c -25.611,15.093 -38.334,45.826 -42.844,61.625 -4.5121,-15.802 -17.206,-46.535 -42.812,-61.625 l -9.4688,0.1875 c -8.15,-8.245 -13.31,-16.057 -30.29,-12.469 -7.65,-2.8378 -11.2,-9.8065 -26.78,-4.7188 -6.3797,-2.0185 -12.247,-6.2144 -19.156,-6 z"
         inkscape:connector-curvature="0"
         style="fill:#000000" />
      <path
         id="path3450"
         d="m 107.39,68.056 c 67.948,35.031 107.45,63.369 129.09,87.504 -11.082,44.418 -68.896,46.445 -90.036,45.199 4.3284,-2.0147 7.9399,-4.4278 9.2205,-8.1357 -5.3045,-3.7698 -24.113,-0.39719 -37.244,-7.7742 5.0441,-1.045 7.4035,-2.063 9.7629,-5.7854 -12.406,-3.9567 -25.769,-7.3664 -33.628,-13.921 4.2413,0.0524 8.2012,0.9488 13.74,-2.8927 -11.112,-5.9882 -22.969,-10.734 -32.181,-19.887 5.7452,-0.14063 11.939,-0.0568 13.74,-2.1695 -10.17,-6.3007 -18.751,-13.308 -25.854,-20.972 8.04,0.97052 11.435,0.13478 13.379,-1.2656 -7.6878,-7.8742 -17.418,-14.523 -22.057,-24.226 5.9696,2.0575 11.431,2.8451 15.368,-0.1808 -2.6124,-5.8935 -13.805,-9.3696 -20.249,-23.142 6.2844,0.60938 12.95,1.3711 14.283,0 -2.917,-11.884 -7.922,-18.565 -12.831,-25.487 13.45,-0.2 33.828,0.052 32.905,-1.085 l -8.3165,-8.4973 c 13.138,-3.5372 26.581,0.56816 36.34,3.6159 4.3819,-3.4577 -0.0776,-7.83 -5.4238,-12.294 11.165,1.4906 21.254,4.0574 30.373,7.5934 4.8724,-4.3993 -3.1639,-8.7987 -7.051,-13.198 17.249,3.2726 24.557,7.8707 31.82,12.475 5.2694,-5.0508 0.30166,-9.3433 -3.2543,-13.74 13.006,4.817 19.705,11.036 26.758,17.175 2.3912,-3.2271 6.0749,-5.5924 1.6272,-13.379 9.2342,5.3227 16.189,11.595 21.334,18.622 5.7134,-3.6379 3.4039,-8.613 3.4351,-13.198 9.5966,7.8065 15.687,16.114 23.142,24.226 1.5017,-1.0934 2.8166,-4.8017 3.9775,-10.667 22.895,22.212 55.246,78.158 8.3165,100.34 -39.94,-32.94 -87.64,-56.883 -140.5,-74.844 z"
         inkscape:connector-curvature="0"
         style="fill:#75a928" />
      <path
         id="path3452"
         d="m 467.92,68.056 c -67.94,35.034 -107.44,63.364 -129.08,87.504 11.082,44.418 68.896,46.445 90.036,45.199 -4.3284,-2.0147 -7.9399,-4.4278 -9.2205,-8.1357 5.3045,-3.7698 24.113,-0.39719 37.244,-7.7742 -5.0441,-1.045 -7.4035,-2.063 -9.7629,-5.7854 12.406,-3.9567 25.769,-7.3664 33.628,-13.921 -4.2413,0.0524 -8.2012,0.9488 -13.74,-2.8927 11.112,-5.9882 22.969,-10.734 32.181,-19.887 -5.7452,-0.14063 -11.939,-0.0568 -13.74,-2.1695 10.17,-6.3007 18.751,-13.308 25.854,-20.972 -8.04,0.97052 -11.435,0.13478 -13.379,-1.2656 7.6878,-7.8742 17.418,-14.523 22.057,-24.226 -5.9696,2.0575 -11.431,2.8451 -15.368,-0.1808 2.6124,-5.8935 13.805,-9.3696 20.249,-23.142 -6.2844,0.60938 -12.95,1.3711 -14.283,0 2.9223,-11.889 7.9275,-18.57 12.836,-25.492 -13.45,-0.19973 -33.828,0.05235 -32.905,-1.0848 l 8.3165,-8.4973 c -13.138,-3.5372 -26.581,0.56816 -36.34,3.6159 -4.3819,-3.4577 0.0776,-7.83 5.4238,-12.294 -11.165,1.4906 -21.254,4.0574 -30.373,7.5934 -4.8724,-4.3993 3.1639,-8.7987 7.051,-13.198 -17.249,3.2726 -24.557,7.8707 -31.82,12.475 -5.2694,-5.0508 -0.30166,-9.3433 3.2543,-13.74 -13.006,4.817 -19.705,11.036 -26.758,17.175 -2.3912,-3.2271 -6.0749,-5.5924 -1.6272,-13.379 -9.2342,5.3227 -16.189,11.595 -21.334,18.622 -5.7134,-3.6379 -3.4039,-8.613 -3.4351,-13.198 -9.5966,7.8065 -15.687,16.114 -23.142,24.226 -1.5017,-1.0934 -2.8166,-4.8017 -3.9775,-10.667 -22.895,22.212 -55.246,78.158 -8.3165,100.34 39.919,-32.947 87.616,-56.888 140.48,-74.849 z"
         inkscape:connector-curvature="0"
         style="fill:#75a928" />
      <path
         id="path3454"
         transform="matrix(1.131107,0,0,1.1280497,-43.139135,-68.310983)"
         d="m 365.2,521.85 a 71.956,66.532 0 1 1 -143.91,0 71.956,66.532 0 1 1 143.91,0 z"
         inkscape:connector-curvature="0"
         style="fill:#bc1142" />
      <path
         id="path3456"
         transform="matrix(0.76741684,-1.1613112,2.171115,1.4224368,-560.88858,217.68859)"
         d="m 262.84,276.65 a 61.875,28.125 0 1 1 -123.75,0 61.875,28.125 0 1 1 123.75,0 z"
         inkscape:connector-curvature="0"
         style="fill:#bc1142" />
      <path
         id="path3458"
         transform="matrix(-0.76741684,-1.1613112,-2.171115,1.4224368,1134.8288,213.68859)"
         d="m 262.84,276.65 a 61.875,28.125 0 1 1 -123.75,0 61.875,28.125 0 1 1 123.75,0 z"
         inkscape:connector-curvature="0"
         style="fill:#bc1142" />
      <path
         id="path3460"
         d="M 72.91,342.09 C 109.32,332.33 85.202,492.72 55.577,479.56 22.99,453.35 12.494,376.59 72.91,342.09 Z"
         inkscape:connector-curvature="0"
         style="fill:#bc1142" />
      <path
         id="path3462"
         d="M 493.68,340.09 C 457.266,330.3331 481.388,490.73 511.013,477.57 543.6,451.357 554.096,374.59 493.68,340.09 Z"
         inkscape:connector-curvature="0"
         style="fill:#bc1142" />
      <path
         id="path3464"
         d="m 369.97,220.65 c 62.835,-10.61 115.12,26.722 113.01,94.858 -2.0669,26.121 -136.16,-90.969 -113.01,-94.858 z"
         inkscape:connector-curvature="0"
         style="fill:#bc1142" />
      <path
         id="path3466"
         d="M 196.36,218.65 C 133.52,208.04 81.24,245.38 83.35,313.51 85.417,339.63 219.51,222.54 196.36,218.65 Z"
         inkscape:connector-curvature="0"
         style="fill:#bc1142" />
      <path
         id="path3468"
         d="m 286.62,202.76 c -37.503,-0.97548 -73.495,27.834 -73.582,44.544 -0.10462,20.304 29.651,41.093 73.837,41.62 45.123,0.32321 73.916,-16.64 74.061,-37.594 0.16484,-23.74 -41.039,-48.937 -74.317,-48.571 z"
         inkscape:connector-curvature="0"
         style="fill:#bc1142" />
      <path
         id="path3470"
         d="m 288.91,619.12 c 32.697,-1.4271 76.571,10.532 76.657,26.396 0.5427,15.405 -39.79,50.211 -78.826,49.538 -40.427,1.7439 -80.069,-33.116 -79.55,-45.199 -0.60506,-17.716 49.226,-31.548 81.719,-30.735 z"
         inkscape:connector-curvature="0"
         style="fill:#bc1142" />
      <path
         id="path3472"
         d="m 168.14,525.1 c 23.279,28.046 33.891,77.319 14.464,91.844 -18.379,11.088 -63.012,6.5216 -94.736,-39.052 -21.395,-38.242 -18.638,-77.157 -3.6159,-88.589 22.464,-13.684 57.173,4.799 83.889,35.797 z"
         inkscape:connector-curvature="0"
         style="fill:#bc1142" />
      <path
         id="path3474"
         d="m 405.02,516.21 c -25.187,29.502 -39.212,83.31 -20.838,100.64 17.568,13.464 64.729,11.582 99.566,-36.756 25.296,-32.465 16.82,-86.682 2.3708,-101.08 -21.464,-16.602 -52.277,4.6449 -81.099,37.188 z"
         inkscape:connector-curvature="0"
         style="fill:#bc1142" />
    </g>
  </g>
</svg>
